<svg xmlns="http://www.w3.org/2000/svg" width="18" height="18" viewBox="0 0 18 18">
    <defs>
        <style>
            .cls-1 {
            fill: #c5c5c5;
            fill-rule: evenodd;
            }
            .cls-1:hover {
            fill:#EF6733;
            fill-rule: evenodd;
            }
        </style>
    </defs>
    <path id="Forma_1_copy_3" data-name="Forma 1 copy 3" class="cls-1" d="M1187.79,1331.48A9.047,9.047,0,1,0,1189,1336,8.845,8.845,0,0,0,1187.79,1331.48Zm-0.89,7.43a7.4,7.4,0,0,1-3.99,3.99,7.357,7.357,0,0,1-5.82,0,7.4,7.4,0,0,1-3.99-3.99,7.357,7.357,0,0,1,0-5.82,7.4,7.4,0,0,1,3.99-3.99,7.357,7.357,0,0,1,5.82,0,7.4,7.4,0,0,1,3.99,3.99A7.357,7.357,0,0,1,1186.9,1338.91Zm-4.23-1.29a4.532,4.532,0,0,0-5.34,0,4.348,4.348,0,0,0-1.62,2.28,0.75,0.75,0,0,0,1.43.45,2.973,2.973,0,0,1,1.08-1.52,3.021,3.021,0,0,1,3.56,0,2.973,2.973,0,0,1,1.08,1.52,0.708,0.708,0,0,0,.37.44,0.735,0.735,0,0,0,.58.05,0.716,0.716,0,0,0,.43-0.37,0.707,0.707,0,0,0,.05-0.57A4.348,4.348,0,0,0,1182.67,1337.62Zm-5.67-3.12a1.5,1.5,0,1,0-1.06-.44A1.458,1.458,0,0,0,1177,1334.5Zm6-3a1.5,1.5,0,1,0,1.06.44A1.458,1.458,0,0,0,1183,1331.5Z" transform="translate(-1171 -1327)"/>
</svg>